<?xml version="1.0" encoding="UTF-8"?>
<svg width="32px" height="32px" viewBox="0 0 32 32" version="1.1" xmlns="http://www.w3.org/2000/svg" xmlns:xlink="http://www.w3.org/1999/xlink">
    <!-- Generator: Sketch 58 (84663) - https://sketch.com -->
    <title>Author Copy</title>
    <desc>Created with Sketch.</desc>
    <g id="Page-1" stroke="none" stroke-width="1" fill="none" fill-rule="evenodd">
        <g id="Mobile-Copy-14" transform="translate(-16.000000, -95.000000)">
            <g id="artical" transform="translate(8.000000, 79.000000)">
                <g id="Author" transform="translate(8.000000, 16.000000)">
                    <g id="Author-Copy">
                        <circle id="Oval" fill="#EEEEEE" cx="16" cy="16" r="16"></circle>
                        <path d="M16.0000375,19.2 C19.5360556,19.2 22.4,16.3280306 22.4,12.8000375 C22.4,9.26401941 19.5359806,6.4 16.0000375,6.4 C12.4640944,6.4 9.6,9.26401941 9.6,12.7999625 C9.6,16.3279556 12.4640194,19.2 16.0000375,19.2 Z" id="Path" fill="#E0E0E0" fill-rule="nonzero"></path>
                        <path d="M16.0000375,21.3333333 C19.8303917,21.3333333 27.1080482,22.8654543 28.5486366,25.9245737 L28.4849797,26.0071839 C25.5525989,29.6609162 21.0494606,32 16,32 C10.9134918,32 6.38135189,29.6264668 3.45073009,25.9265501 C4.89038318,22.8657847 12.169203,21.3333333 16.0000375,21.3333333 Z" id="Combined-Shape" fill="#E0E0E0" fill-rule="nonzero"></path>
                    </g>
                </g>
            </g>
        </g>
    </g>
</svg>