<?xml version="1.0" encoding="UTF-8"?>
<svg width="71px" height="35px" viewBox="0 0 71 35" version="1.1" xmlns="http://www.w3.org/2000/svg" xmlns:xlink="http://www.w3.org/1999/xlink">
    <!-- Generator: Sketch 58 (84663) - https://sketch.com -->
    <title>logo</title>
    <desc>Created with Sketch.</desc>
    <g id="web" stroke="none" stroke-width="1" fill="none" fill-rule="evenodd">
        <g id="Desktop" transform="translate(-65.000000, -24.000000)" fill="#000000" fill-rule="nonzero">
            <g id="logo" transform="translate(63.000000, 24.000000)">
                <path d="M21.0801021,16.588918 C18.2887793,16.588918 16.0178554,18.8627978 16.0178554,21.657754 C16.0178554,24.4527102 18.2887793,26.7265901 21.0801021,26.7265901 C23.871425,26.7265901 26.1423489,24.4527102 26.1423489,21.657754 C26.1423489,18.8627978 23.871425,16.588918 21.0801021,16.588918 Z M23.227722,23.347366 C22.297281,23.347366 21.5403064,22.5894061 21.5403064,21.657754 C21.5403064,20.7261019 22.297281,19.968142 23.227722,19.968142 C24.1581629,19.968142 24.9151375,20.7261019 24.9151375,21.657754 C24.9151375,22.5894061 24.1581629,23.347366 23.227722,23.347366 Z" id="Shape"></path>
                <path d="M17.8663659,9.22114752 C16.0652137,9.22222031 14.3233034,9.5874474 12.6894645,10.3068066 C11.8745598,10.6656788 11.5038707,11.6170863 11.8614255,12.4319928 C12.2189804,13.2468993 13.1696103,13.6164912 13.9845149,13.2579413 C15.2070332,12.7197134 16.512539,12.4463176 17.8644506,12.4455141 C23.1953972,12.4423458 27.5298937,16.7791176 27.5267254,22.112861 C27.523557,27.4466044 23.1839053,31.7885315 17.8529586,31.7916999 C12.522012,31.7948682 8.18751554,27.4580964 8.19068388,22.124353 C8.19071663,22.0692164 8.19058748,22.0153696 8.1919093,21.9602322 C8.21306314,21.0701342 7.5090253,20.3321734 6.61941852,20.3120662 C5.72836249,20.2903477 4.99140089,20.9970825 4.97024696,21.8873417 C4.96800798,21.9676295 4.96800798,22.0459817 4.96800798,22.1262683 C4.96378585,29.2379262 10.7431145,35.0202886 17.8510433,35.0160665 C24.9589722,35.0118397 30.7451745,29.2226035 30.7494013,22.1109457 C30.7536234,14.9992878 24.9742948,9.21692537 17.8663659,9.22114752 Z" id="Path" transform="translate(17.858705, 22.118607) rotate(147.000000) translate(-17.858705, -22.118607) "></path>
                <path d="M16.1493423,0 C15.5683805,0 15.0974469,0.412603254 15.0974469,0.921606554 L15.0974469,6.45124588 C15.0974469,6.96024918 15.5683805,7.37285243 16.1493423,7.37285243 C16.7303042,7.37285243 17.2012377,6.96024918 17.2012377,6.45124588 L17.2012377,0.921606554 C17.2012377,0.412603254 16.7303042,0 16.1493423,0 Z" id="Path"></path>
                <path d="M9.22951369,8.1211951 L4.2255514,3.11074947 C3.76490847,2.64950972 3.01797096,2.64950972 2.55721008,3.11074947 C2.09656716,3.57198922 2.09656716,4.3198945 2.55721008,4.78125236 L7.56117237,9.79169798 C8.02181529,10.2529377 8.76887077,10.2530558 9.22951369,9.79169798 C9.69015661,9.33045823 9.69015661,8.58255296 9.22951369,8.1211951 Z" id="Path"></path>
                <path d="M29.4785007,2.18914292 C29.0178578,1.72790317 28.2709202,1.72790317 27.8101594,2.18914292 L22.8061971,7.19958854 C22.3455541,7.66082829 22.3455541,8.40873357 22.8061971,8.87009143 C23.266722,9.33133118 24.0137775,9.33144929 24.4745384,8.87009143 L29.4785007,3.85964581 C29.9391436,3.39840606 29.9391436,2.65050078 29.4785007,2.18914292 Z" id="Path"></path>
                <path d="M41.208,29.336 C42.024,29.336 42.624,29.192 43.032,29.024 L42.6,26.408 C42.36,26.456 42.264,26.456 42.12,26.456 C41.784,26.456 41.4,26.192 41.4,25.4 L41.4,9.848 L37.896,9.848 L37.896,25.232 C37.896,27.728 38.76,29.336 41.208,29.336 Z M51.072,29.336 C54.432,29.336 57.528,26.744 57.528,22.304 C57.528,17.816 54.432,15.224 51.072,15.224 C47.712,15.224 44.616,17.816 44.616,22.304 C44.616,26.744 47.712,29.336 51.072,29.336 Z M51.072,26.456 C49.248,26.456 48.216,24.824 48.216,22.304 C48.216,19.76 49.248,18.104 51.072,18.104 C52.896,18.104 53.928,19.76 53.928,22.304 C53.928,24.824 52.896,26.456 51.072,26.456 Z M65.208,34.832 C69.696,34.832 72.504,32.768 72.504,30.056 C72.504,27.704 70.752,26.696 67.512,26.696 L65.232,26.696 C63.648,26.696 63.12,26.312 63.12,25.592 C63.12,25.064 63.312,24.752 63.696,24.44 C64.272,24.632 64.896,24.752 65.424,24.752 C68.304,24.752 70.608,23.216 70.608,20.192 C70.608,19.352 70.344,18.608 69.984,18.152 L72.288,18.152 L72.288,15.56 L67.44,15.56 C66.888,15.368 66.168,15.224 65.424,15.224 C62.568,15.224 60,16.928 60,20.096 C60,21.656 60.864,22.928 61.776,23.6 L61.776,23.696 C60.984,24.272 60.288,25.208 60.288,26.216 C60.288,27.32 60.816,28.016 61.512,28.472 L61.512,28.592 C60.288,29.288 59.592,30.248 59.592,31.376 C59.592,33.752 62.04,34.832 65.208,34.832 Z M65.424,22.568 C64.248,22.568 63.312,21.68 63.312,20.096 C63.312,18.512 64.224,17.624 65.424,17.624 C66.624,17.624 67.512,18.512 67.512,20.096 C67.512,21.68 66.6,22.568 65.424,22.568 Z M65.736,32.6 C63.768,32.6 62.52,31.952 62.52,30.824 C62.52,30.272 62.808,29.744 63.408,29.264 C63.888,29.384 64.464,29.456 65.28,29.456 L66.912,29.456 C68.352,29.456 69.144,29.696 69.144,30.656 C69.144,31.712 67.752,32.6 65.736,32.6 Z" id="log"></path>
            </g>
        </g>
    </g>
</svg>